{
  "asset": {
    "version": "2.0",
    "generator": "THREE.GLTFExporter r172"
  },
  "scenes": [
    {
      "name": "Scene",
      "nodes": [
        10
      ]
    }
  ],
  "scene": 0,
  "nodes": [
    {
      "matrix": [
        1,
        0,
        0,
        0,
        0,
        1,
        0,
        0,
        0,
        0,
        1,
        0,
        -0.003000000026077032,
        0,
        -0.006000000052154064,
        1
      ],
      "name": "Number0",
      "extras": {
        "name": "Number0"
      },
      "mesh": 0
    },
    {
      "matrix": [
        1,
        0,
        0,
        0,
        0,
        1,
        0,
        0,
        0,
        0,
        1,
        0,
        -0.003000000026077032,
        0,
        -0.006000000052154064,
        1
      ],
      "name": "Number2",
      "extras": {
        "name": "Number2"
      },
      "mesh": 1
    },
    {
      "matrix": [
        1,
        0,
        0,
        0,
        0,
        1,
        0,
        0,
        0,
        0,
        1,
        0,
        -0.003000000026077032,
        0,
        -0.006000000052154064,
        1
      ],
      "name": "Number2-2",
      "extras": {
        "name": "Number2-2"
      },
      "mesh": 2
    },
    {
      "matrix": [
        1,
        0,
        0,
        0,
        0,
        1,
        0,
        0,
        0,
        0,
        1,
        0,
        -0.003000000026077032,
        0,
        -0.006000000052154064,
        1
      ],
      "name": "Number4",
      "extras": {
        "name": "Number4"
      },
      "mesh": 3
    },
    {
      "matrix": [
        1,
        0,
        0,
        0,
        0,
        1,
        0,
        0,
        0,
        0,
        1,
        0,
        0.10299412161111832,
        0,
        -0.006000000052154064,
        1
      ],
      "name": "Number5",
      "extras": {
        "name": "Number5"
      },
      "mesh": 4
    },
    {
      "name": "Podium",
      "extras": {
        "name": "Podium"
      },
      "mesh": 5
    },
    {
      "matrix": [
        47.172428131103516,
        0,
        0,
        0,
        0,
        47.172428131103516,
        0,
        0,
        0,
        0,
        47.172428131103516,
        0,
        0.0022666361182928085,
        0,
        0,
        1
      ],
      "name": "_0___Google_Drive_Embed",
      "extras": {
        "name": "_0___Google_Drive_Embed"
      },
      "children": [
        0,
        1,
        2,
        3,
        4,
        5
      ]
    },
    {
      "matrix": [
        -0.2908646775532549,
        -0.05518904522473682,
        -0.9551712124420509,
        0,
        -0.7711009254164625,
        0.6045246338968102,
        0.19988339509297365,
        0,
        0.5663931554665306,
        0.7946723905074929,
        -0.21839119484224845,
        0,
        0.022430896759033203,
        6.230806350708008,
        6.236053943634033,
        1
      ],
      "name": "Light",
      "extras": {
        "name": "Light"
      },
      "extensions": {
        "KHR_lights_punctual": {
          "light": 0
        }
      }
    },
    {
      "matrix": [
        0.9999620242467835,
        0.002979024270447399,
        0.008189962169292266,
        0,
        0.00009889583488816214,
        0.9358224675583283,
        -0.3524717041739544,
        0,
        -0.008714372367856191,
        0.3524591287486308,
        0.9357866343821096,
        0,
        0,
        2.3856046199798584,
        6.210760116577148,
        1
      ],
      "name": "Camera",
      "extras": {
        "name": "Camera"
      },
      "camera": 0
    },
    {
      "name": "Blender_Exportglb",
      "extras": {
        "name": "Blender Export.glb"
      },
      "children": [
        6,
        7,
        8
      ]
    },
    {
      "name": "blender-export-2024.gltf",
      "children": [
        9
      ]
    }
  ],
  "bufferViews": [
    {
      "buffer": 0,
      "byteOffset": 0,
      "byteLength": 31128,
      "target": 34962,
      "byteStride": 12
    },
    {
      "buffer": 0,
      "byteOffset": 31128,
      "byteLength": 31128,
      "target": 34962,
      "byteStride": 12
    },
    {
      "buffer": 0,
      "byteOffset": 62256,
      "byteLength": 20752,
      "target": 34962,
      "byteStride": 8
    },
    {
      "buffer": 0,
      "byteOffset": 83008,
      "byteLength": 22488,
      "target": 34963
    },
    {
      "buffer": 0,
      "byteOffset": 105496,
      "byteLength": 17904,
      "target": 34962,
      "byteStride": 12
    },
    {
      "buffer": 0,
      "byteOffset": 123400,
      "byteLength": 17904,
      "target": 34962,
      "byteStride": 12
    },
    {
      "buffer": 0,
      "byteOffset": 141304,
      "byteLength": 11936,
      "target": 34962,
      "byteStride": 8
    },
    {
      "buffer": 0,
      "byteOffset": 153240,
      "byteLength": 12504,
      "target": 34963
    },
    {
      "buffer": 0,
      "byteOffset": 165744,
      "byteLength": 18120,
      "target": 34962,
      "byteStride": 12
    },
    {
      "buffer": 0,
      "byteOffset": 183864,
      "byteLength": 18120,
      "target": 34962,
      "byteStride": 12
    },
    {
      "buffer": 0,
      "byteOffset": 201984,
      "byteLength": 12080,
      "target": 34962,
      "byteStride": 8
    },
    {
      "buffer": 0,
      "byteOffset": 214064,
      "byteLength": 12648,
      "target": 34963
    },
    {
      "buffer": 0,
      "byteOffset": 226712,
      "byteLength": 1008,
      "target": 34962,
      "byteStride": 12
    },
    {
      "buffer": 0,
      "byteOffset": 227720,
      "byteLength": 1008,
      "target": 34962,
      "byteStride": 12
    },
    {
      "buffer": 0,
      "byteOffset": 228728,
      "byteLength": 672,
      "target": 34962,
      "byteStride": 8
    },
    {
      "buffer": 0,
      "byteOffset": 229400,
      "byteLength": 336,
      "target": 34963
    },
    {
      "buffer": 0,
      "byteOffset": 229736,
      "byteLength": 21936,
      "target": 34962,
      "byteStride": 12
    },
    {
      "buffer": 0,
      "byteOffset": 251672,
      "byteLength": 21936,
      "target": 34962,
      "byteStride": 12
    },
    {
      "buffer": 0,
      "byteOffset": 273608,
      "byteLength": 15168,
      "target": 34963
    },
    {
      "buffer": 0,
      "byteOffset": 288776,
      "byteLength": 8256,
      "target": 34962,
      "byteStride": 12
    },
    {
      "buffer": 0,
      "byteOffset": 297032,
      "byteLength": 8256,
      "target": 34962,
      "byteStride": 12
    },
    {
      "buffer": 0,
      "byteOffset": 305288,
      "byteLength": 5504,
      "target": 34962,
      "byteStride": 8
    },
    {
      "buffer": 0,
      "byteOffset": 310792,
      "byteLength": 2688,
      "target": 34963
    }
  ],
  "buffers": [
    {
      "byteLength": 313480,
      "uri": "data:application/octet-stream;base64,"
    }
  ],
  "accessors": [
    {
      "bufferView": 0,
      "componentType": 5126,
      "count": 2594,
      "max": [
        0.0023133629001677036,
        0.03087994083762169,
        0.010359999723732471
      ],
      "min": [
        -0.014146814122796059,
        0.009817994199693203,
        0.0003600000054575503
      ],
      "type": "VEC3"
    },
    {
      "bufferView": 1,
      "componentType": 5126,
      "count": 2594,
      "max": [
        1,
        1,
        1
      ],
      "min": [
        -1,
        -1,
        -1
      ],
      "type": "VEC3"
    },
    {
      "bufferView": 2,
      "componentType": 5126,
      "count": 2594,
      "max": [
        0.9923180341720581,
        0.997750997543335
      ],
      "min": [
        0.002248997101560235,
        0.008265554904937744
      ],
      "type": "VEC2"
    },
    {
      "bufferView": 3,
      "componentType": 5123,
      "count": 11244,
      "max": [
        2593
      ],
      "min": [
        0
      ],
      "type": "SCALAR"
    },
    {
      "bufferView": 4,
      "componentType": 5126,
      "count": 1492,
      "max": [
        -0.015975723043084145,
        0.03087994083762169,
        0.010359999723732471
      ],
      "min": [
        -0.03043000027537346,
        0.009994985535740852,
        0.0003600000054575503
      ],
      "type": "VEC3"
    },
    {
      "bufferView": 5,
      "componentType": 5126,
      "count": 1492,
      "max": [
        1,
        1,
        1
      ],
      "min": [
        -1,
        -1,
        -1
      ],
      "type": "VEC3"
    },
    {
      "bufferView": 6,
      "componentType": 5126,
      "count": 1492,
      "max": [
        0.9948329329490662,
        0.997750997543335
      ],
      "min": [
        0.0022489975672215223,
        0.008257806301116943
      ],
      "type": "VEC2"
    },
    {
      "bufferView": 7,
      "componentType": 5123,
      "count": 6252,
      "max": [
        1491
      ],
      "min": [
        0
      ],
      "type": "SCALAR"
    },
    {
      "bufferView": 8,
      "componentType": 5126,
      "count": 1510,
      "max": [
        0.0187145434319973,
        0.03087994083762169,
        0.010359999723732471
      ],
      "min": [
        0.004260265734046698,
        0.009994985535740852,
        0.0003600000054575503
      ],
      "type": "VEC3"
    },
    {
      "bufferView": 9,
      "componentType": 5126,
      "count": 1510,
      "max": [
        1,
        1,
        1
      ],
      "min": [
        -1,
        -1,
        -1
      ],
      "type": "VEC3"
    },
    {
      "bufferView": 10,
      "componentType": 5126,
      "count": 1510,
      "max": [
        0.9977510571479797,
        0.997750997543335
      ],
      "min": [
        0.17725726962089539,
        0.008242130279541016
      ],
      "type": "VEC2"
    },
    {
      "bufferView": 11,
      "componentType": 5123,
      "count": 6324,
      "max": [
        1509
      ],
      "min": [
        0
      ],
      "type": "SCALAR"
    },
    {
      "bufferView": 12,
      "componentType": 5126,
      "count": 84,
      "max": [
        0.03782958537340164,
        0.03014247864484787,
        0.010359999723732471
      ],
      "min": [
        0.020838437601923943,
        0.009729498066008091,
        0.0003600000054575503
      ],
      "type": "VEC3"
    },
    {
      "bufferView": 13,
      "componentType": 5126,
      "count": 84,
      "max": [
        1,
        1,
        1
      ],
      "min": [
        -1,
        -1,
        -1
      ],
      "type": "VEC3"
    },
    {
      "bufferView": 14,
      "componentType": 5126,
      "count": 84,
      "max": [
        0.969950795173645,
        0.997750997543335
      ],
      "min": [
        0.0022489975672215223,
        0.008265972137451172
      ],
      "type": "VEC2"
    },
    {
      "bufferView": 15,
      "componentType": 5123,
      "count": 168,
      "max": [
        83
      ],
      "min": [
        0
      ],
      "type": "SCALAR"
    },
    {
      "bufferView": 16,
      "componentType": 5126,
      "count": 1828,
      "max": [
        0.036767639219760895,
        0.030407965183258057,
        0.010359999723732471
      ],
      "min": [
        0.02195938117802143,
        0.009700000286102295,
        0.0003600000054575503
      ],
      "type": "VEC3"
    },
    {
      "bufferView": 17,
      "componentType": 5126,
      "count": 1828,
      "max": [
        1,
        1,
        1
      ],
      "min": [
        -1,
        -1,
        -1
      ],
      "type": "VEC3"
    },
    {
      "bufferView": 18,
      "componentType": 5123,
      "count": 7584,
      "max": [
        1827
      ],
      "min": [
        0
      ],
      "type": "SCALAR"
    },
    {
      "bufferView": 19,
      "componentType": 5126,
      "count": 688,
      "max": [
        0.05000000074505806,
        0.009999999776482582,
        0.049995169043540955
      ],
      "min": [
        -0.04998067766427994,
        0,
        -0.049995169043540955
      ],
      "type": "VEC3"
    },
    {
      "bufferView": 20,
      "componentType": 5126,
      "count": 688,
      "max": [
        1,
        1,
        0.9999033808708191
      ],
      "min": [
        -1,
        -1,
        -0.9999033808708191
      ],
      "type": "VEC3"
    },
    {
      "bufferView": 21,
      "componentType": 5126,
      "count": 688,
      "max": [
        0.3506869077682495,
        0.9997556209564209
      ],
      "min": [
        0.0002443905104883015,
        0.00024437904357910156
      ],
      "type": "VEC2"
    },
    {
      "bufferView": 22,
      "componentType": 5123,
      "count": 1344,
      "max": [
        687
      ],
      "min": [
        0
      ],
      "type": "SCALAR"
    }
  ],
  "materials": [
    {
      "pbrMetallicRoughness": {
        "baseColorFactor": [
          0.800000011920929,
          0.800000011920929,
          0.800000011920929,
          1
        ],
        "metallicFactor": 0,
        "roughnessFactor": 0.5
      },
      "doubleSided": true,
      "name": "Material.004"
    },
    {
      "pbrMetallicRoughness": {
        "metallicFactor": 1,
        "roughnessFactor": 1
      }
    },
    {
      "pbrMetallicRoughness": {
        "baseColorFactor": [
          0,
          0,
          0,
          1
        ],
        "metallicFactor": 0,
        "roughnessFactor": 0
      },
      "doubleSided": true,
      "name": "Material.002"
    }
  ],
  "meshes": [
    {
      "primitives": [
        {
          "mode": 4,
          "attributes": {
            "POSITION": 0,
            "NORMAL": 1,
            "TEXCOORD_0": 2
          },
          "indices": 3,
          "material": 0
        }
      ]
    },
    {
      "primitives": [
        {
          "mode": 4,
          "attributes": {
            "POSITION": 4,
            "NORMAL": 5,
            "TEXCOORD_0": 6
          },
          "indices": 7,
          "material": 0
        }
      ]
    },
    {
      "primitives": [
        {
          "mode": 4,
          "attributes": {
            "POSITION": 8,
            "NORMAL": 9,
            "TEXCOORD_0": 10
          },
          "indices": 11,
          "material": 0
        }
      ]
    },
    {
      "primitives": [
        {
          "mode": 4,
          "attributes": {
            "POSITION": 12,
            "NORMAL": 13,
            "TEXCOORD_0": 14
          },
          "indices": 15,
          "material": 0
        }
      ]
    },
    {
      "primitives": [
        {
          "mode": 4,
          "attributes": {
            "POSITION": 16,
            "NORMAL": 17
          },
          "indices": 18,
          "material": 1
        }
      ]
    },
    {
      "primitives": [
        {
          "mode": 4,
          "attributes": {
            "POSITION": 19,
            "NORMAL": 20,
            "TEXCOORD_0": 21
          },
          "indices": 22,
          "material": 2
        }
      ]
    }
  ],
  "extensions": {
    "KHR_lights_punctual": {
      "lights": [
        {
          "name": "Light",
          "color": [
            1,
            1,
            1
          ],
          "intensity": 400,
          "type": "point"
        }
      ]
    }
  },
  "cameras": [
    {
      "type": "perspective",
      "perspective": {
        "aspectRatio": 1.7026194144838214,
        "yfov": 0.8417681891914242,
        "zfar": 1000,
        "znear": 0.10000000149011612
      },
      "name": "PerspectiveCamera"
    }
  ],
  "extensionsUsed": [
    "KHR_lights_punctual"
  ]
}